HIERARCHY
ROOT Hips
{
	OFFSET -3.958830 18.904000 13.208200
	CHANNELS 6 Xposition Yposition Zposition Zrotation Yrotation Xrotation 
	JOINT LHipJoint
	{
		OFFSET 0.000000 0.000000 0.000000
		CHANNELS 3 Zrotation Yrotation Xrotation
		JOINT LeftUpLeg
		{
			OFFSET 1.800000 -1.400000 0.085000
			CHANNELS 3 Zrotation Yrotation Xrotation
			JOINT LeftLeg
			{
				OFFSET 2.215000 -6.000000 0.000000
				CHANNELS 3 Zrotation Yrotation Xrotation
				JOINT LeftFoot
				{
					OFFSET 2.500000 -6.900000 0.000000
					CHANNELS 3 Zrotation Yrotation Xrotation
					JOINT LeftToeBase
					{
						OFFSET 0.200000 -0.500000 1.950000
						CHANNELS 3 Zrotation Yrotation Xrotation
						End Site
						{
							OFFSET 0.000000 0.000000 0.000000
						}
					}
				}
			}
		}
	}
	JOINT RHipJoint
	{
		OFFSET 0.000000 0.000000 0.000000
		CHANNELS 3 Zrotation Yrotation Xrotation
		JOINT RightUpLeg
		{
			OFFSET -1.800000 -1.400000 0.085000
			CHANNELS 3 Zrotation Yrotation Xrotation
			JOINT RightLeg
			{
				OFFSET -2.215000 -6.000000 0.000000
				CHANNELS 3 Zrotation Yrotation Xrotation
				JOINT RightFoot
				{
					OFFSET -2.500000 -6.900000 0.000000
					CHANNELS 3 Zrotation Yrotation Xrotation
					JOINT RightToeBase
					{
						OFFSET -0.200000 -0.500000 1.950000
						CHANNELS 3 Zrotation Yrotation Xrotation
						End Site
						{
							OFFSET 0.000000 0.000000 0.000000
						}
					}
				}
			}
		}
	}
	JOINT LowerBack
	{
		OFFSET 0.000000 0.000000 0.000000
		CHANNELS 3 Zrotation Yrotation Xrotation
		JOINT Spine
		{
			OFFSET -0.087000 1.940000 -0.288900
			CHANNELS 3 Zrotation Yrotation Xrotation
			JOINT Spine1
			{
				OFFSET 0.000000 1.950000 0.060000
				CHANNELS 3 Zrotation Yrotation Xrotation
				JOINT Neck
				{
					OFFSET 0.000000 0.000000 0.000000
					CHANNELS 3 Zrotation Yrotation Xrotation
					JOINT Neck1
					{
						OFFSET 0.000000 1.600000 0.340000
						CHANNELS 3 Zrotation Yrotation Xrotation
						JOINT Head
						{
							OFFSET 0.000000 1.667000 -0.240000
							CHANNELS 3 Zrotation Yrotation Xrotation
							End Site
							{
								OFFSET 0.000000 0.000000 0.000000
							}
						}
					}
				}
				JOINT LeftShoulder
				{
					OFFSET 0.000000 0.000000 0.000000
					CHANNELS 3 Zrotation Yrotation Xrotation
					JOINT LeftArm
					{
						OFFSET 2.700000 1.550000 -0.730000
						CHANNELS 3 Zrotation Yrotation Xrotation
						JOINT LeftForeArm
						{
							OFFSET 5.450000 0.000000 0.000000
							CHANNELS 3 Zrotation Yrotation Xrotation
							JOINT LeftHand
							{
								OFFSET 3.450000 0.000000 0.000000
								CHANNELS 3 Zrotation Yrotation Xrotation
								JOINT LeftHandIndex1
								{
									OFFSET 0.750000 0.000000 0.000000
									CHANNELS 3 Zrotation Yrotation Xrotation
									End Site
									{
										OFFSET 0.000000 0.000000 0.000000
									}
								}
							}
						}
					}
				}
				JOINT RightShoulder
				{
					OFFSET 0.000000 0.000000 0.000000
					CHANNELS 3 Zrotation Yrotation Xrotation
					JOINT RightArm
					{
						OFFSET -2.700000 1.550000 -0.730000
						CHANNELS 3 Zrotation Yrotation Xrotation
						JOINT RightForeArm
						{
							OFFSET -5.450000 0.000000 0.000000
							CHANNELS 3 Zrotation Yrotation Xrotation
							JOINT RightHand
							{
								OFFSET -3.450000 0.000000 0.000000
								CHANNELS 3 Zrotation Yrotation Xrotation
								JOINT RightHandIndex1
								{
									OFFSET -0.750000 0.000000 0.000000
									CHANNELS 3 Zrotation Yrotation Xrotation
									End Site
									{
										OFFSET 0.000000 0.000000 0.000000
									}
								}
							}
						}
					}
				}
			}
		}
	}
}
MOTION
Frames: 14
Frame Time: 0.016667
-24.062070 16.989230 3.902800 -2.326860 27.046516 16.115129 -15.064480 10.033859 4.560316 7.047278 -5.101636 -36.915571 1.376160 -0.130915 -17.575227 -3.540275 3.702936 2.761588 4.389530 4.092570 3.144580 18.863957 -10.043087 2.409543 1.122504 5.994721 -23.859457 6.363354 -3.649265 22.908603 -1.087525 -4.641499 1.449713 3.551540 -0.084670 0.865820 -4.536888 1.330901 -7.433685 11.876909 8.891565 -4.964292 -0.572414 7.597898 3.170615 -5.544788 -2.155972 1.561783 -3.453470 15.296821 9.399967 0.317790 0.856440 -17.527470 -3.728775 -10.077245 -7.204918 -20.580456 -49.827493 24.756609 8.440624 -21.410799 -3.327054 -3.610662 4.017544 0.898070 0.375840 0.387160 0.985910 13.946104 13.072570 -6.222395 4.290828 40.356598 12.974035 -10.646866 29.710459 -5.241006 0.771067 -3.495109 -0.186120 0.492410 -1.530290 -0.515330 
-24.008860 16.981620 3.931820 -3.144509 29.124317 16.328122 -15.036264 9.825353 4.692954 8.658983 -5.003222 -37.931787 1.447486 -0.093004 -18.002509 -3.706154 3.960676 2.621073 4.398660 3.965500 3.329260 18.912337 -10.051161 2.419906 2.563977 5.999117 -23.688460 5.525384 -3.368862 22.185623 -1.078952 -4.520337 1.395164 3.507660 -0.092650 0.923100 -4.625582 1.675304 -7.467413 12.713533 8.934627 -5.579939 -0.831570 7.109891 -0.378584 -5.311602 -2.259669 3.528478 -3.860664 17.601135 8.641857 -0.114130 2.550820 -16.662670 -2.258957 -3.086753 -7.789505 -28.934759 -50.551767 31.184378 8.644229 -24.083939 -3.399871 -3.687945 4.087129 0.968570 0.416980 0.345960 0.864140 11.896350 6.512978 -8.726635 12.306786 43.304696 19.457396 -10.606381 25.017608 -5.300347 0.770425 -3.464489 -0.248390 0.474820 -1.436060 -0.666800 
-23.966440 16.978150 3.958780 -3.693090 30.672022 16.133454 -14.960065 9.600435 4.747286 9.861797 -4.641876 -38.137434 1.103584 -0.034818 -18.285537 -3.635078 4.061604 2.563613 4.307670 3.850760 3.275820 18.995870 -10.196716 2.427140 3.688560 5.856431 -23.172832 4.544872 -3.075138 21.635891 -1.055459 -4.451517 1.425361 3.410790 -0.091500 0.973400 -4.854476 2.295328 -7.473367 13.961197 9.043643 -5.955733 -1.539019 6.901647 -2.401763 -5.129382 -3.045292 4.868967 -5.209829 19.653927 8.266805 0.523990 3.989400 -16.121140 -2.929082 1.282293 -7.574890 -30.566479 -47.881074 29.838318 9.080979 -30.186275 -3.246056 -3.610480 4.331841 0.969400 0.432300 0.343200 0.837220 11.896176 3.410475 -10.521947 17.794932 47.538024 25.473306 -8.497404 15.904457 -5.507691 1.044398 -3.326849 -0.236680 0.395190 -1.392490 -0.674900 
-23.944240 16.990100 3.968320 -3.616403 32.559795 15.648773 -14.906033 9.481602 4.740871 10.179285 -4.168401 -38.114923 0.277742 0.007208 -18.280434 -3.344722 3.925814 2.588946 4.204400 3.816710 3.069800 19.049448 -10.342635 2.407691 4.193964 5.519284 -22.323145 3.787405 -2.863736 21.150529 -1.068180 -4.361879 1.535320 3.289300 -0.167510 0.999400 -5.034063 2.721529 -7.496980 14.976302 9.227852 -5.772881 -2.723267 7.484424 -1.110036 -4.522833 -4.192906 3.906491 -7.006506 20.218371 8.412977 1.848600 4.372390 -16.973820 -5.072352 0.015865 -5.815070 -25.582751 -40.864269 20.998795 14.131467 -39.019504 -5.000472 -3.424114 4.492431 0.953220 0.341280 0.439310 0.902040 12.716187 5.889359 -10.201512 15.843742 48.244638 24.111194 -5.260050 9.476107 -5.248775 1.365883 -3.215252 -0.117440 0.262890 -1.432100 -0.560680 
-23.915930 17.004330 3.969700 -4.271041 34.372362 14.614052 -14.880580 9.408934 4.751732 11.205694 -3.687556 -38.103202 -0.333699 0.028430 -17.867503 -2.933104 3.715545 2.634040 4.065690 3.857330 2.818280 19.077984 -10.422465 2.403424 5.321492 5.185399 -21.522804 2.855400 -2.696908 21.090760 -1.089071 -4.337475 1.689763 3.193680 -0.287070 1.074090 -5.154684 2.954853 -7.537987 16.850414 8.821619 -5.259558 -3.903587 7.413896 -0.683941 -3.655600 -4.905106 3.236870 -8.097276 20.864270 8.728744 2.041360 5.808970 -17.624060 -6.238498 0.368262 -4.545756 -22.478776 -35.503020 16.140448 15.867429 -44.683877 -5.575314 -3.281059 4.563407 0.859320 0.329140 0.623820 1.008410 12.111500 6.094399 -10.091811 12.244224 47.021262 21.632346 -1.686560 10.294288 -4.179454 1.453647 -3.229976 0.057210 0.054680 -1.568490 -0.401920 
-23.875390 17.003880 3.975580 -4.159122 36.134529 14.421740 -14.853416 9.377833 4.769744 11.213125 -3.923385 -38.137009 -0.420490 -0.076994 -17.649404 -2.829375 3.598569 2.675025 4.010980 3.861470 2.792410 19.091998 -10.538139 2.380445 5.089995 4.816073 -21.066249 3.084595 -2.889499 20.595172 -1.097307 -4.373229 1.726623 3.163030 -0.323500 1.127330 -5.263936 3.164135 -7.513684 17.005685 8.054715 -5.170348 -3.866142 6.228897 -2.473926 -3.463352 -4.859670 4.192339 -8.334615 23.630289 8.344570 2.229700 8.424540 -17.386240 -5.365734 4.468808 -4.294501 -23.722070 -31.953136 15.689311 16.125796 -48.117727 -5.327398 -3.259114 4.666594 0.844990 0.373320 0.712540 1.033110 10.910377 2.287936 -11.611682 16.741891 48.527985 25.577785 -1.328738 7.877741 -4.324462 1.593565 -3.149381 0.087070 -0.032270 -1.646810 -0.375400 
-23.853240 17.000110 3.987770 -3.858514 37.793171 14.091075 -14.839361 9.406433 4.739490 10.778332 -3.871359 -37.880226 -0.420415 -0.042056 -17.712451 -2.755399 3.517843 2.771669 3.886020 3.718360 2.727070 19.091051 -10.626926 2.351156 4.510028 4.401359 -20.167707 3.896722 -3.221838 19.739076 -1.056287 -4.394377 1.801434 3.036630 -0.290410 1.068330 -5.338049 3.254219 -7.502913 17.703400 7.958826 -4.764064 -4.537783 6.387288 -2.371500 -3.333630 -5.395739 3.707355 -9.075882 23.549535 8.488334 2.577480 8.643020 -17.705010 -6.451430 4.840452 -3.840266 -20.741455 -28.247839 13.254460 15.469429 -50.700477 -5.136463 -3.140608 4.577284 0.932250 0.334280 0.713250 1.039700 11.606704 2.432021 -10.924289 13.918129 46.696813 22.020706 -0.773830 9.975560 -3.837854 1.620809 -3.124845 0.007880 -0.038720 -1.689520 -0.342640 
-23.816520 17.001940 4.002240 -3.823309 39.331867 13.923414 -14.830699 9.418080 4.730958 10.469770 -3.964413 -37.669922 -0.377731 -0.053911 -17.873164 -2.695997 3.509468 2.819483 3.784070 3.595760 2.685760 19.089341 -10.694101 2.335644 4.334392 4.054019 -19.446539 4.173393 -3.368856 18.886191 -1.066907 -4.355667 1.852497 2.934550 -0.275770 1.076110 -5.399367 3.326474 -7.486666 17.948901 7.639600 -4.556285 -4.825483 6.004548 -3.402177 -3.113232 -5.499793 3.937652 -9.426888 25.121733 8.141204 2.624230 10.101500 -17.879920 -6.348805 7.166177 -3.667317 -20.507440 -24.986081 12.455989 15.372416 -51.591082 -4.802177 -3.177612 4.575536 0.961720 0.341780 0.722470 1.018200 10.992748 0.271495 -11.193245 15.031976 46.155718 21.712549 -1.857975 10.196736 -3.847551 1.616881 -3.065976 -0.008740 -0.034600 -1.651940 -0.366740 
-23.777300 16.992350 4.024790 -3.583590 40.857366 14.059772 -14.835194 9.431606 4.735052 10.382288 -4.233003 -37.413701 -0.742594 -0.179003 -17.938245 -2.624921 3.572758 2.797191 3.734580 3.520470 2.670770 19.083024 -10.694712 2.301693 3.913115 3.875066 -19.068827 4.763320 -3.636584 18.570920 -1.157646 -4.388617 1.761726 2.840710 -0.253390 1.227990 -5.417169 3.256474 -7.430738 16.921022 7.113728 -4.632130 -4.156139 4.941833 -5.341214 -3.380490 -5.038004 5.170074 -9.296569 28.539608 7.433145 3.433900 12.563840 -17.912230 -4.997122 11.342533 -3.796275 -21.895487 -22.717990 12.956118 11.940020 -50.719271 -2.801717 -3.278788 4.813476 0.950930 0.374130 0.779760 0.996470 10.166422 -4.100804 -12.727364 21.184071 47.667712 24.611285 -5.774586 6.041423 -4.782808 1.751811 -3.018145 0.075040 -0.086880 -1.566310 -0.366240 
-23.745730 16.981410 4.045090 -3.006949 42.145792 14.471575 -14.893165 9.533898 4.691014 9.788003 -4.520372 -37.141443 -0.705240 -0.247897 -18.020962 -2.695186 3.669777 2.793962 3.690790 3.434670 2.688780 19.038074 -10.605321 2.235090 3.526371 3.657330 -18.601268 4.920693 -3.741441 18.047084 -1.180629 -4.402204 1.735402 2.813120 -0.198110 1.289940 -5.252606 2.890008 -7.313448 14.945265 6.542302 -4.771130 -3.490138 4.490250 -6.102822 -2.473153 -4.518518 5.645324 -9.098369 30.619303 6.391070 3.128740 14.370180 -17.748340 -5.398056 13.470030 -3.800755 -20.225117 -19.086964 12.018005 13.256517 -51.851717 -3.350812 -3.464386 4.808641 0.965230 0.448370 0.759370 0.959420 8.957751 -6.972840 -13.584400 18.764181 45.038297 22.972886 -0.518984 10.005925 -3.452983 1.472138 -3.034094 0.044010 -0.054990 -1.484250 -0.431010 
-23.706940 16.979120 4.052840 -3.101950 43.460393 14.261045 -14.926935 9.600980 4.661345 9.614774 -4.608815 -36.803556 -0.982683 -0.264748 -17.919906 -2.660457 3.686316 2.825916 3.628170 3.331740 2.659510 19.006225 -10.565098 2.217012 3.529795 3.610656 -18.338727 5.105039 -3.870169 18.365724 -1.168222 -4.440651 1.743638 2.736380 -0.161250 1.277410 -5.187396 2.692427 -7.278833 14.656082 6.141045 -4.465382 -3.474852 4.334958 -6.854221 -1.884748 -4.413884 5.609103 -9.051155 31.035229 5.889066 3.414230 14.773980 -17.323410 -5.094107 15.317225 -3.753539 -17.522340 -15.435320 11.312636 10.703720 -54.456441 -2.357847 -3.459945 4.939914 0.968460 0.445320 0.715140 0.944250 7.485077 -9.107595 -13.588391 13.792637 40.526961 20.084004 6.367058 19.393349 -0.159305 1.135774 -3.245867 0.024200 -0.055300 -1.450940 -0.437890 
-23.670510 16.974260 4.064900 -2.493886 44.938996 14.561404 -14.951924 9.687905 4.617087 8.853236 -4.846259 -36.411102 -1.090371 -0.319944 -17.907113 -2.689548 3.688266 2.864422 3.573770 3.265570 2.646000 18.977518 -10.543537 2.189525 2.919736 3.615093 -18.234704 5.660607 -4.137311 18.805990 -1.170773 -4.519739 1.725048 2.706810 -0.118530 1.265030 -5.134577 2.496909 -7.224464 13.913446 5.798253 -4.355561 -3.278639 3.979466 -7.382548 -1.848504 -4.120502 5.841031 -8.820038 31.825948 5.546525 3.333590 15.501790 -17.288230 -4.247210 16.840092 -3.807588 -16.105553 -13.539940 11.176380 7.677197 -54.574135 -1.022149 -3.500312 4.982149 0.980060 0.472570 0.687120 0.920270 6.659235 -11.003019 -13.807256 13.467901 38.439151 19.182172 7.816253 22.214879 0.923215 1.012274 -3.298361 -0.018180 -0.012960 -1.410050 -0.463120 
-23.644840 16.981110 4.069610 -1.853703 46.122489 14.943350 -14.960788 9.802615 4.568991 7.873739 -5.093228 -36.023532 -0.919065 -0.331140 -17.722625 -2.610696 3.589091 2.967259 3.436960 3.112480 2.538810 18.952449 -10.566259 2.194993 2.546911 3.697669 -18.433482 5.724148 -4.291989 19.541008 -1.139574 -4.533319 1.790612 2.578920 -0.072030 1.220940 -5.136065 2.356448 -7.199712 13.519912 5.525862 -3.736370 -3.502636 3.722953 -8.568348 -1.987790 -4.090855 5.982220 -8.736795 31.861234 5.745189 3.660320 15.756240 -17.228620 -4.053067 18.308885 -3.861970 -14.697345 -12.427643 11.251506 5.061028 -56.393238 0.249096 -3.459804 5.030004 0.996290 0.457970 0.650350 0.915530 6.620048 -12.533858 -13.761488 14.298224 37.043031 18.236758 6.916860 23.774236 1.275067 1.027888 -3.258555 -0.052510 0.003570 -1.372260 -0.449020 
-23.623450 16.979250 4.072620 -1.255307 47.027683 15.372341 -14.972602 9.896387 4.529762 6.774776 -5.337050 -35.887187 -0.710860 -0.368155 -17.564164 -2.603525 3.504153 3.032818 3.392320 3.050100 2.492850 18.935692 -10.578012 2.179770 2.449379 3.540910 -18.194469 5.402656 -4.228597 19.307810 -1.153483 -4.451766 1.844199 2.519940 -0.052570 1.208540 -5.123514 2.214198 -7.145949 12.876058 5.619100 -3.484557 -3.606429 3.694812 -9.183728 -2.208260 -3.884926 6.270548 -8.367670 31.830839 5.979669 4.218800 15.710340 -18.115730 -3.800786 19.701058 -4.312716 -14.048323 -13.144048 11.350736 4.082391 -56.004039 0.736725 -3.414930 5.030091 1.057550 0.421460 0.666070 0.926360 6.742606 -14.212745 -13.499826 17.068839 35.393251 16.714228 2.313436 23.953081 0.270661 1.064899 -3.172091 -0.070940 0.047110 -1.344980 -0.443710 
